HIERARCHY
ROOT Hips
{
	OFFSET 0.000000 0.000000 0.000000
	CHANNELS 6 Xposition Yposition Zposition Zrotation Yrotation Xrotation 
	JOINT LHipJoint
	{
		OFFSET 0.000000 0.000000 0.000000
		CHANNELS 3 Zrotation Yrotation Xrotation
		JOINT LeftUpLeg
		{
			OFFSET 1.363060 -1.794630 0.839290
			CHANNELS 3 Zrotation Yrotation Xrotation
			JOINT LeftLeg
			{
				OFFSET 2.448110 -6.726130 0.000000
				CHANNELS 3 Zrotation Yrotation Xrotation
				JOINT LeftFoot
				{
					OFFSET 2.562200 -7.039590 0.000000
					CHANNELS 3 Zrotation Yrotation Xrotation
					JOINT LeftToeBase
					{
						OFFSET 0.157640 -0.433110 2.322550
						CHANNELS 3 Zrotation Yrotation Xrotation
						End Site
						{
							OFFSET 0.000000 0.000000 0.000000
						}
					}
				}
			}
		}
	}
	JOINT RHipJoint
	{
		OFFSET 0.000000 0.000000 0.000000
		CHANNELS 3 Zrotation Yrotation Xrotation
		JOINT RightUpLeg
		{
			OFFSET -1.305520 -1.794630 0.839290
			CHANNELS 3 Zrotation Yrotation Xrotation
			JOINT RightLeg
			{
				OFFSET -2.542530 -6.985550 0.000000
				CHANNELS 3 Zrotation Yrotation Xrotation
				JOINT RightFoot
				{
					OFFSET -2.568260 -7.056230 0.000000
					CHANNELS 3 Zrotation Yrotation Xrotation
					JOINT RightToeBase
					{
						OFFSET -0.164730 -0.452590 2.363150
						CHANNELS 3 Zrotation Yrotation Xrotation
						End Site
						{
							OFFSET 0.000000 0.000000 0.000000
						}
					}
				}
			}
		}
	}
}
MOTION
Frames: 33
Frame Time: 0.008333
0.792960 16.700541 -3.271516 84.239202 -76.418057 -85.452246 -2.776257 -4.473522 2.959612 -2.560113 -15.613001 -111.812598 -5.899043 -3.242449 -4.981614 0.131463 4.432608 8.998614 2.729099 -0.000000 -46.014600 12.934788 4.718197 -9.941790 -5.570828 -7.134404 -5.066756 0.649106 -3.375234 35.257747 -1.707560 -5.967874 -16.852933 0.907300 -0.000000 -57.040000
0.791221 16.688614 -3.261868 85.485772 -76.421186 -86.995281 -2.913189 -4.510908 2.949589 -1.811512 -15.175673 -111.307205 -5.525749 -2.458005 -1.511658 0.185074 5.199722 11.672490 3.229600 0.000000 -48.596300 13.050488 4.670731 -9.795319 -5.718050 -7.054188 -5.058348 0.647834 -3.399117 35.550163 -1.669223 -5.768884 -16.966614 0.899099 -0.000000 -57.089500
0.790878 16.677314 -3.254942 86.716792 -76.370941 -88.639246 -3.033824 -4.538569 2.776203 -1.726659 -14.953652 -110.549952 -5.173244 -1.620568 2.252723 0.120659 5.290208 14.903969 3.498100 0.000001 -49.830900 13.187399 4.615649 -9.626019 -5.924343 -6.953270 -4.911292 0.636803 -3.421049 35.781675 -1.635556 -5.598389 -17.058495 0.889900 0.000000 -57.114000
0.791993 16.667217 -3.250139 87.906795 -76.277267 -90.327185 -3.125163 -4.587563 2.486277 -1.977264 -14.786948 -109.407498 -4.781547 -0.845522 5.853898 0.034085 5.033814 18.361825 3.563000 -0.000000 -49.391900 13.327525 4.553530 -9.446695 -6.157008 -6.816384 -4.637970 0.617640 -3.441338 35.942771 -1.610575 -5.475971 -17.127487 0.882500 -0.000001 -57.086799
0.794132 16.658868 -3.246200 89.023585 -76.162740 -91.980445 -3.189331 -4.658474 2.132743 -2.374860 -14.631026 -107.889137 -4.358115 -0.199338 9.093771 -0.019306 4.626991 21.654684 3.461500 0.000000 -47.663600 13.452616 4.482580 -9.265475 -6.372158 -6.634512 -4.277084 0.593375 -3.458704 36.030658 -1.597693 -5.417898 -17.174689 0.879701 0.000000 -56.986201
0.794846 16.656776 -3.231024 92.884301 -76.088419 -96.043203 -3.292808 -4.819064 1.799490 -2.606186 -13.751359 -106.615956 -3.912501 0.357025 12.219679 -0.028689 4.001552 24.329206 3.131300 -0.000000 -45.739500 13.489913 4.302147 -8.816800 -6.102411 -5.361560 -4.477290 0.566832 -3.496400 36.352565 -1.659111 -5.728532 -17.326475 0.934200 -0.000000 -56.408400
0.797643 16.653504 -3.226216 93.712614 -75.967621 -97.350615 -3.332498 -4.895075 1.457287 -2.989154 -13.673290 -104.608260 -3.502446 0.717206 14.683493 0.036198 3.813246 26.582957 3.002301 0.000000 -43.884500 13.555130 4.216045 -8.639423 -6.210261 -5.118706 -4.097828 0.540364 -3.501591 36.317407 -1.671480 -5.801973 -17.336230 0.943400 -0.000000 -56.138200
0.799902 16.653214 -3.219937 94.409502 -75.881910 -98.456891 -3.380663 -4.954534 1.155503 -3.361505 -13.678422 -102.534349 -3.122146 0.984123 16.950949 0.143859 3.852527 28.190584 2.979700 0.000000 -42.869300 13.589616 4.121680 -8.459864 -6.239591 -4.854748 -3.764518 0.515248 -3.498033 36.229517 -1.695072 -5.933176 -17.326916 0.957800 0.000000 -55.795500
0.800978 16.656073 -3.211892 95.014411 -75.840055 -99.395331 -3.444981 -4.992031 0.892807 -3.776081 -13.765071 -100.484909 -2.773666 1.196157 19.190053 0.276988 4.103692 29.147542 3.071900 0.000001 -42.589700 13.594377 4.016259 -8.272197 -6.184682 -4.571254 -3.490301 0.492776 -3.485037 36.092196 -1.727961 -6.112024 -17.297382 0.976000 0.000001 -55.397200
0.800358 16.662077 -3.202037 95.569627 -75.840265 -100.213421 -3.527200 -5.009830 0.664990 -4.245422 -13.909549 -98.491829 -2.448818 1.374827 21.476413 0.430400 4.576013 29.581224 3.291200 0.000000 -43.283600 13.573684 3.899767 -8.073159 -6.056726 -4.273774 -3.275545 0.473554 -3.462867 35.907866 -1.766595 -6.320273 -17.245409 0.995200 -0.000001 -54.971000
0.797518 16.670994 -3.190404 96.139288 -75.879078 -100.990595 -3.628263 -5.013476 0.459133 -4.799636 -14.069767 -96.564071 -2.143353 1.537208 23.877566 0.595219 5.204711 29.585454 3.594100 0.000000 -44.570400 13.530204 3.770454 -7.860229 -5.861954 -3.960378 -3.105002 0.458406 -3.432477 35.675643 -1.808013 -6.542395 -17.169515 1.012800 -0.000000 -54.539900
0.792063 16.682428 -3.177180 96.772755 -75.948857 -101.792006 -3.747837 -5.010693 0.266979 -5.427425 -14.204329 -94.676558 -1.852662 1.687932 26.379243 0.768459 5.947295 29.313900 3.950800 0.000000 -46.300900 13.467474 3.628938 -7.634131 -5.612972 -3.635262 -2.961877 0.447951 -3.395056 35.394746 -1.848676 -6.760063 -17.068454 1.026300 -0.000001 -54.129300
0.783499 16.696111 -3.162411 97.504757 -76.046708 -102.661380 -3.886747 -5.007957 0.085460 -6.097986 -14.283514 -92.797349 -1.575362 1.826655 28.931941 0.945739 6.751370 28.903079 4.328000 0.000000 -48.140800 13.387600 3.476037 -7.397952 -5.319757 -3.308565 -2.831786 0.443271 -3.351583 35.064283 -1.885305 -6.956113 -16.942236 1.033199 0.000000 -53.759100
0.771646 16.711536 -3.146260 98.344209 -76.169446 -103.615348 -4.046167 -5.009191 -0.084395 -6.772211 -14.292248 -90.898305 -1.312609 1.950993 31.468519 1.121345 7.562743 28.470287 4.696800 0.000001 -49.736800 13.292707 3.313914 -7.156038 -4.991611 -2.994578 -2.707353 0.445272 -3.302725 34.685465 -1.914923 -7.115156 -16.792562 1.032001 -0.000000 -53.439300
0.756318 16.728258 -3.129019 99.274717 -76.313782 -104.637743 -4.226641 -5.014427 -0.236639 -7.406544 -14.235158 -88.961354 -1.066378 2.058202 33.920433 1.289605 8.336319 28.106180 5.038401 0.000000 -50.854900 13.185484 3.145560 -6.913344 -4.638667 -2.713048 -2.588156 0.454491 -3.248658 34.261114 -1.934903 -7.223725 -16.622109 1.021900 0.000000 -53.178700
0.737482 16.745942 -3.110824 100.268673 -76.480233 -105.697726 -4.428093 -5.021591 -0.364202 -7.964463 -14.130936 -86.981968 -0.837948 2.146975 36.239377 1.445683 9.036055 27.863406 5.340500 0.000000 -51.368000 13.068126 2.973770 -6.674801 -4.269726 -2.484059 -2.478446 0.471413 -3.189379 33.794861 -1.943203 -7.271425 -16.433872 1.002500 -0.000000 -52.979400
0.715155 16.764269 -3.091826 101.298762 -76.669127 -106.763670 -4.649328 -5.027453 -0.461518 -8.423279 -14.003492 -84.966335 -0.627507 2.218016 38.405943 1.586733 9.639523 27.758217 5.596900 0.000000 -51.290400 12.942626 2.800766 -6.444217 -3.891412 -2.322718 -2.383198 0.496163 -3.124869 33.290541 -1.938685 -7.252520 -16.230750 0.974200 0.000000 -52.839400
0.689642 16.782930 -3.072158 102.341334 -76.879130 -107.812374 -4.888172 -5.029355 -0.526149 -8.773212 -13.874758 -82.926038 -0.433996 2.273298 40.426564 1.712686 10.142358 27.782590 5.808600 0.000000 -50.782700 12.810857 2.628344 -6.224323 -3.508520 -2.236989 -2.304919 0.528399 -3.055389 32.752215 -1.921206 -7.166562 -16.014921 0.937899 -0.000000 -52.752900
0.661147 16.801724 -3.051850 103.397799 -77.108494 -108.845687 -5.142096 -5.025008 -0.560487 -9.023515 -13.755777 -80.877300 -0.256021 2.317068 42.335922 1.824286 10.546229 27.897643 5.974600 0.000000 -49.943000 12.674425 2.457415 -6.015855 -3.124527 -2.224000 -2.243916 0.567653 -2.981594 32.184550 -1.891548 -7.017403 -15.789254 0.895100 0.000000 -52.713100
0.629918 16.820519 -3.030946 104.481237 -77.351861 -109.878726 -5.408602 -5.013307 -0.567360 -9.181575 -13.653771 -78.830384 -0.091346 2.352011 44.164297 1.925953 10.880087 28.086222 6.111100 0.000000 -49.128400 12.534009 2.288349 -5.818308 -2.739264 -2.271875 -2.196339 0.612892 -2.904278 31.590876 -1.851613 -6.814986 -15.553830 0.847300 0.000000 -52.711000
0.596309 16.839164 -3.009449 105.631129 -77.602173 -110.956258 -5.685953 -4.992946 -0.554689 -9.272192 -13.557863 -76.794583 0.060862 2.383026 45.955003 2.019238 11.157103 28.298369 6.219900 0.000000 -48.356900 12.390499 2.121270 -5.629266 -2.352541 -2.358820 -2.157084 0.663036 -2.824682 30.977011 -1.803936 -6.571985 -15.311652 0.796500 0.000001 -52.736699
0.560531 16.857646 -2.987347 106.898429 -77.850146 -112.133717 -5.972981 -4.962570 -0.529501 -9.314689 -13.454086 -74.770877 0.201244 2.413185 47.730140 2.106707 11.400761 28.508751 6.311300 0.000000 -47.759699 12.244000 1.956170 -5.445284 -1.962089 -2.456509 -2.119856 0.716527 -2.744050 30.348258 -1.751868 -6.305797 -15.063232 0.744600 -0.000000 -52.781200
0.522860 16.875884 -2.964741 108.336006 -78.083494 -113.468294 -6.268564 -4.919791 -0.498453 -9.326909 -13.324925 -72.753949 0.329524 2.444674 49.492030 2.189873 11.630435 28.699995 6.394800 0.000000 -47.437600 12.094922 1.793584 -5.262273 -1.566374 -2.534295 -2.079465 0.771589 -2.663522 29.711148 -1.698901 -6.034353 -14.811164 0.693400 -0.000000 -52.834600
0.483496 16.893902 -2.942016 109.982149 -78.286213 -115.000329 -6.568870 -4.859228 -0.467325 -9.332888 -13.154875 -70.731079 0.444292 2.478738 51.217309 2.268294 11.857954 28.854922 6.475800 -0.000001 -47.385900 11.948267 1.635503 -5.075269 -1.175644 -2.566444 -2.037004 0.825885 -2.584362 29.077570 -1.647665 -5.770940 -14.561909 0.644801 0.000000 -52.889500
0.442334 16.911724 -2.918091 111.920612 -78.465367 -116.813390 -6.881708 -4.782534 -0.438515 -9.316095 -12.923928 -68.709658 0.547533 2.517476 52.900872 2.341275 12.078066 28.933504 6.544700 0.000000 -47.404600 11.788428 1.477990 -4.881056 -0.748833 -2.510489 -1.981090 0.879598 -2.506141 28.440713 -1.605077 -5.552956 -14.308137 0.600500 -0.000000 -52.927300
0.399744 16.929347 -2.894192 114.105835 -78.595804 -118.861118 -7.194861 -4.679455 -0.412914 -9.305250 -12.638721 -66.665523 0.636465 2.558443 54.466971 2.407640 12.306275 28.941950 6.613700 -0.000001 -47.620300 11.631734 1.327133 -4.675072 -0.325130 -2.364231 -1.926573 0.929284 -2.429965 27.821302 -1.570529 -5.376424 -14.063956 0.561200 0.000000 -52.947900
0.355658 16.946773 -2.870236 116.522218 -78.677025 -121.124108 -7.506571 -4.547742 -0.389292 -9.294570 -12.301430 -64.602093 0.712149 2.601219 55.879211 2.465649 12.538050 28.845438 6.674800 0.000001 -47.837400 11.475536 1.182862 -4.455064 0.105577 -2.114128 -1.876053 0.974271 -2.355410 27.221442 -1.547133 -5.258144 -13.830396 0.527500 -0.000000 -52.940600
0.310152 16.963994 -2.846454 119.102241 -78.708670 -123.531624 -7.811312 -4.385221 -0.364463 -9.283153 -11.928464 -62.519485 0.775289 2.643735 57.093154 2.514586 12.778001 28.623293 6.727600 0.000000 -47.981800 11.322411 1.046345 -4.220291 0.538656 -1.763304 -1.835939 1.013801 -2.282149 26.645389 -1.535844 -5.203209 -13.610961 0.499599 -0.000000 -52.900200
0.263196 16.981011 -2.822842 121.774433 -78.699196 -126.007324 -8.104698 -4.192957 -0.334227 -9.264084 -11.540294 -60.425218 0.827188 2.683819 58.078157 2.554585 13.031537 28.258622 6.771500 0.000000 -47.979000 11.172518 0.917409 -3.971400 0.975628 -1.320400 -1.810303 1.048031 -2.209513 26.091873 -1.537540 -5.216334 -13.406578 0.477000 -0.000000 -52.821700
0.214896 16.997754 -2.799816 124.426932 -78.655362 -128.439424 -8.379644 -3.972889 -0.295606 -9.243837 -11.161933 -58.324055 0.868613 2.719011 58.813684 2.586473 13.310684 27.741926 6.810700 0.000000 -47.735701 11.031679 0.796945 -3.711360 1.401142 -0.811299 -1.804329 1.077043 -2.137591 25.562996 -1.550145 -5.286241 -13.220131 0.458699 -0.000000 -52.708000
0.165377 17.014120 -2.777275 126.985290 -78.594288 -130.754356 -8.633957 -3.731009 -0.244698 -9.215505 -10.816949 -56.225559 0.900616 2.747159 59.296494 2.612796 13.629122 27.084394 6.852100 -0.000001 -47.268200 10.898431 0.683675 -3.444383 1.817168 -0.258056 -1.815084 1.101929 -2.065797 25.051108 -1.572986 -5.409372 -13.049407 0.443900 0.000000 -52.559200
0.114754 17.030009 -2.755518 129.363848 -78.527025 -132.869632 -8.863183 -3.472629 -0.180276 -9.189424 -10.523827 -54.134291 0.923590 2.766248 59.532025 2.636459 14.003515 26.310043 6.905700 0.000001 -46.574900 10.777268 0.577362 -3.175599 2.207793 0.305778 -1.842742 1.123555 -1.994455 24.554941 -1.602371 -5.565370 -12.896776 0.431400 -0.000000 -52.385300
0.062958 17.045361 -2.734051 131.534258 -78.477784 -134.759732 -9.070361 -3.205258 -0.099929 -9.155500 -10.300372 -52.063070 0.939166 2.776915 59.552818 2.660048 14.438639 25.429265 6.971400 -0.000000 -45.459600 10.661955 0.475853 -2.911855 2.584994 0.855170 -1.874645 1.143706 -1.922486 24.057230 -1.637254 -5.750403 -12.750882 0.419500 -0.000000 -52.185400
